# xmcd CD database file
#
# Track frame offsets:
#	150
#	12592
#	32506
#	47653
#	91917
#	108454
#	133567
#	154248
#	190300
#
# Disc length: 2602 seconds
#
# Revision: 0
# Processed by: cddbd v1.5.2PL0 Copyright (c) Steve Scherf et al.
# Submitted via: CDex 1.51
#
DISCID=6f0a2809
DTITLE=Fairhurst, Richard - Formic
DYEAR=1998
DGENRE=Jazz
TTITLE0=Mandibles 1
TTITLE1=Fetish
TTITLE2=Whenever
TTITLE3=Sludge
TTITLE4=Farmers arms
TTITLE5=Daringly Poised
TTITLE6=Growth in an old garden
TTITLE7=Fish magic
TTITLE8=Mandibles 2
EXTD=YEAR: 1998
EXTT0=
EXTT1=
EXTT2=
EXTT3=
EXTT4=
EXTT5=
EXTT6=
EXTT7=
EXTT8=
PLAYORDER=
